# xmcd CD database file
#
# Track frame offsets:
#	150
#	13262
#	26292
#	39472
#	50680
#	66155
#	78937
#	93067
#	106827
#	119950
#	130842
#	144215
#	157790
#	170227
#	183235
#	195380
#	208497
#	220020
#	232175
#	244730
#	257255
#	270710
#
# Disc length: 3885 seconds
#
# Revision: 4
# Processed by: cddbd v1.5.2PL0 Copyright (c) Steve Scherf et al.
# Submitted via: CDex 1.51
#
DISCID=320f2b16
DTITLE=Various Artist - Chess Soul - A Decade Of Chicago's Finest  [CD 2-2]
DYEAR=1998
DGENRE=Soul
TTITLE0=Fontella Bass - Rescue Me  [1965]
TTITLE1=Bobby McClure - I'm Not Ashamed  [1965]
TTITLE2=Jo Ann Garrett - Stay By My Side  [1966]
TTITLE3=Billy Young - Have Piy On Me  [1966]
TTITLE4=Ramsey Lewis - Wade In The Water  [1966]
TTITLE5=Gene Chandler - I Fooled You This Time  [1966]
TTITLE6=Big Maybelle - Don't Pass Me By  [1966]
TTITLE7=Andrea Davis - Lonely Girl  [1966]
TTITLE8=Gene Chandler - To Be A Lover  [1966]
TTITLE9=Barbara Carr - Don't Knock Me  [1966]
TTITLE10=Eddie and Ernie - I Believe She Will  [1966]
TTITLE11=Marlena Shaw - Mercy, Mercy, Mercy  [1967]
TTITLE12=Denise LaSalle - A Love Reputation  [1967]
TTITLE13=Laura Lee - Dirty Man  [1967]
TTITLE14=Fred Hughes - I Can't Make It Without You  [1967]
TTITLE15=The Radiants - Hold On  [1967]
TTITLE16=Irma Thomas - Good To Me  [1967]
TTITLE17=Maurice and Mac - You Left The Water Running  [1968]
TTITLE18=The Dells - Oh What A Day  [1969]
TTITLE19=Little Milton - Baby, I Love You  [1969]
TTITLE20=Etta James - Losers Weepers  [1970]
TTITLE21=The Dells - Give Your Baby A Standing Ovation  [1972]
EXTD=YEAR: 1998
EXTT0=
EXTT1=
EXTT2=
EXTT3=
EXTT4=
EXTT5=
EXTT6=
EXTT7=
EXTT8=
EXTT9=
EXTT10=
EXTT11=
EXTT12=
EXTT13=
EXTT14=
EXTT15=
EXTT16=
EXTT17=
EXTT18=
EXTT19=
EXTT20=
EXTT21=
PLAYORDER=
